<svg width="145" height="27" viewBox="0 0 145 27" fill="none"
    xmlns="http://www.w3.org/2000/svg">
    <path d="M32.7185 16.6556C32.284 15.5854 32.0668 14.4307 32.0668 13.1916C32.0668 11.9524 32.284 10.7977 32.7185 9.72749C33.1608 8.6573 33.7611 7.75608 34.5194 7.02384C35.2777 6.28355 36.1781 5.7042 37.2208 5.28578C38.2634 4.86735 39.3772 4.65814 40.562 4.65814C43.3818 4.65814 45.55 5.89732 47.0666 8.37567L44.6377 9.63093C44.2349 8.92283 43.6662 8.3475 42.9316 7.90494C42.197 7.45433 41.4071 7.22903 40.562 7.22903C38.9585 7.22903 37.6276 7.79229 36.5691 8.91881C35.5107 10.0373 34.9815 11.4615 34.9815 13.1916C34.9815 14.9216 35.5107 16.3498 36.5691 17.4764C37.6276 18.5948 38.9585 19.1541 40.562 19.1541C41.415 19.1541 42.2049 18.9328 42.9316 18.4902C43.6662 18.0477 44.2349 17.4683 44.6377 16.7522L47.0666 18.0074C45.5263 20.4858 43.3581 21.725 40.562 21.725C39.3772 21.725 38.2634 21.5157 37.2208 21.0973C36.1781 20.6789 35.2777 20.1036 34.5194 19.3713C33.7611 18.631 33.1608 17.7258 32.7185 16.6556Z" fill="white"/>
    <path d="M48.7374 17.766C48.7374 17.1062 48.8559 16.5228 49.0929 16.0159C49.3377 15.5009 49.6576 15.0946 50.0526 14.7968C50.4554 14.4911 50.8898 14.2617 51.3559 14.1089C51.8298 13.956 52.3156 13.8795 52.8132 13.8795C54.4719 13.8795 55.7318 14.3905 56.5928 15.4124V13.6381C56.5928 12.9542 56.34 12.4151 55.8345 12.0208C55.3368 11.6184 54.6773 11.4173 53.8558 11.4173C52.5446 11.4173 51.3875 11.9162 50.3843 12.9139L49.3417 11.1155C50.6766 9.82808 52.3195 9.18435 54.2705 9.18435C54.9498 9.18435 55.5699 9.26481 56.1307 9.42575C56.6994 9.57863 57.2128 9.82003 57.6709 10.1499C58.1291 10.4718 58.4885 10.9224 58.7491 11.5018C59.0098 12.0731 59.1401 12.745 59.1401 13.5174V21.4232H56.5928V20.1438C56.1504 20.6507 55.6015 21.041 54.9459 21.3146C54.2982 21.5882 53.5873 21.725 52.8132 21.725C52.3235 21.725 51.8416 21.6405 51.3677 21.4715C50.8938 21.3025 50.4554 21.0611 50.0526 20.7473C49.6576 20.4254 49.3377 20.007 49.0929 19.492C48.8559 18.977 48.7374 18.4017 48.7374 17.766ZM51.3085 17.8143C51.3085 18.45 51.5415 18.965 52.0075 19.3593C52.4814 19.7455 53.0817 19.9386 53.8084 19.9386C54.385 19.9386 54.9222 19.834 55.4198 19.6248C55.9174 19.4075 56.3084 19.1018 56.5928 18.7075V16.897C56.3084 16.5027 55.9174 16.201 55.4198 15.9918C54.9222 15.7745 54.385 15.6659 53.8084 15.6659C53.0817 15.6659 52.4814 15.863 52.0075 16.2573C51.5415 16.6435 51.3085 17.1625 51.3085 17.8143Z" fill="white"/>
    <path d="M62.6237 21.4232V9.4861H65.171V11.2362C65.6371 10.6408 66.2058 10.154 66.8772 9.77577C67.5486 9.39758 68.2516 9.20849 68.9862 9.20849V11.7794C68.7729 11.7311 68.5043 11.707 68.1805 11.707C67.6434 11.707 67.0707 11.8679 66.4625 12.1898C65.8543 12.5036 65.4238 12.8697 65.171 13.2881V21.4232H62.6237Z" fill="white"/>
    <path d="M77.695 21.4232V4.93575H84.8039C86.3915 4.93575 87.6711 5.41452 88.6427 6.37207C89.6142 7.32961 90.1 8.57281 90.1 10.1017C90.1 10.8098 89.9934 11.4575 89.7801 12.0449C89.5669 12.6323 89.2746 13.1232 88.9034 13.5174C88.54 13.9037 88.1332 14.2175 87.683 14.4589C87.2407 14.7003 86.7667 14.8612 86.2612 14.9417L90.2185 21.4232H86.9484L83.3584 15.2676H80.5386V21.4232H77.695ZM80.5386 12.7208H84.4248C85.2304 12.7208 85.89 12.4794 86.4034 11.9966C86.9247 11.5138 87.1854 10.8822 87.1854 10.1017C87.1854 9.32114 86.9247 8.68948 86.4034 8.20669C85.89 7.72389 85.2304 7.4825 84.4248 7.4825H80.5386V12.7208Z" fill="white"/>
    <path d="M91.5813 15.4366C91.5813 14.2939 91.8301 13.2479 92.3277 12.2984C92.8332 11.3408 93.5441 10.5845 94.4604 10.0292C95.3766 9.46598 96.3995 9.18435 97.529 9.18435C99.2668 9.18435 100.661 9.79589 101.711 11.019C102.77 12.234 103.299 13.791 103.299 15.69V16.3056H94.2471C94.3498 17.247 94.7289 18.0316 95.3845 18.6592C96.048 19.2788 96.9129 19.5886 97.9793 19.5886C98.5717 19.5886 99.172 19.4759 99.7802 19.2506C100.396 19.0173 100.906 18.6954 101.309 18.285L102.47 19.9869C101.893 20.5502 101.194 20.9806 100.373 21.2784C99.5511 21.5761 98.6665 21.725 97.7186 21.725C95.9414 21.725 94.4722 21.1456 93.3111 19.9869C92.1579 18.8201 91.5813 17.3034 91.5813 15.4366ZM94.2234 14.483H100.823C100.807 14.1129 100.732 13.7508 100.598 13.3967C100.471 13.0346 100.282 12.6927 100.029 12.3708C99.7762 12.0489 99.4326 11.7914 98.9982 11.5983C98.5717 11.4052 98.082 11.3086 97.529 11.3086C97.0077 11.3086 96.5338 11.4052 96.1073 11.5983C95.6886 11.7834 95.349 12.0369 95.0883 12.3587C94.8356 12.6725 94.6341 13.0105 94.4841 13.3726C94.3419 13.7266 94.255 14.0968 94.2234 14.483Z" fill="white"/>
    <path d="M105.989 21.4232V9.4861H108.536V11.1155C108.979 10.5845 109.563 10.1298 110.29 9.75163C111.016 9.37344 111.806 9.18435 112.659 9.18435C113.907 9.18435 114.851 9.51426 115.491 10.1741C116.131 10.8339 116.451 11.7834 116.451 13.0226V21.4232H113.903V13.964C113.903 13.0789 113.698 12.4472 113.287 12.0691C112.884 11.6828 112.304 11.4897 111.546 11.4897C110.93 11.4897 110.353 11.6466 109.816 11.9604C109.279 12.2662 108.852 12.6444 108.536 13.095V21.4232H105.989Z" fill="white"/>
    <path d="M118.501 11.7552V9.4861H120.444V6.21516H122.991V9.4861H125.373V11.7552H122.991V18.0074C122.991 18.4259 123.09 18.7678 123.287 19.0334C123.485 19.2909 123.761 19.4196 124.117 19.4196C124.346 19.4196 124.567 19.3794 124.78 19.2989C124.994 19.2104 125.152 19.1098 125.254 18.9972L125.858 20.9525C125.329 21.4675 124.527 21.725 123.453 21.725C122.474 21.725 121.727 21.4634 121.214 20.9404C120.701 20.4093 120.444 19.6489 120.444 18.6592V11.7552H118.501Z" fill="white"/>
    <path d="M127.162 17.766C127.162 17.1062 127.28 16.5228 127.517 16.0159C127.762 15.5009 128.082 15.0946 128.477 14.7968C128.88 14.4911 129.314 14.2617 129.78 14.1089C130.254 13.956 130.74 13.8795 131.238 13.8795C132.896 13.8795 134.156 14.3905 135.017 15.4124V13.6381C135.017 12.9542 134.765 12.4151 134.259 12.0208C133.761 11.6184 133.102 11.4173 132.28 11.4173C130.969 11.4173 129.812 11.9162 128.809 12.9139L127.766 11.1155C129.101 9.82808 130.744 9.18435 132.695 9.18435C133.374 9.18435 133.994 9.26481 134.555 9.42575C135.124 9.57863 135.637 9.82003 136.095 10.1499C136.554 10.4718 136.913 10.9224 137.174 11.5018C137.434 12.0731 137.565 12.745 137.565 13.5174V21.4232H135.017V20.1438C134.575 20.6507 134.026 21.041 133.37 21.3146C132.723 21.5882 132.012 21.725 131.238 21.725C130.748 21.725 130.266 21.6405 129.792 21.4715C129.318 21.3025 128.88 21.0611 128.477 20.7473C128.082 20.4254 127.762 20.007 127.517 19.492C127.28 18.977 127.162 18.4017 127.162 17.766ZM129.733 17.8143C129.733 18.45 129.966 18.965 130.432 19.3593C130.906 19.7455 131.506 19.9386 132.233 19.9386C132.81 19.9386 133.347 19.834 133.844 19.6248C134.342 19.4075 134.733 19.1018 135.017 18.7075V16.897C134.733 16.5027 134.342 16.201 133.844 15.9918C133.347 15.7745 132.81 15.6659 132.233 15.6659C131.506 15.6659 130.906 15.863 130.432 16.2573C129.966 16.6435 129.733 17.1625 129.733 17.8143Z" fill="white"/>
    <path d="M141.048 21.4232V4.93575H143.596V21.4232H141.048Z" fill="white"/>
    <path d="M32.7185 16.6556C32.284 15.5854 32.0668 14.4307 32.0668 13.1916C32.0668 11.9524 32.284 10.7977 32.7185 9.72749C33.1608 8.6573 33.7611 7.75608 34.5194 7.02384C35.2777 6.28355 36.1781 5.7042 37.2208 5.28578C38.2634 4.86735 39.3772 4.65814 40.562 4.65814C43.3818 4.65814 45.55 5.89732 47.0666 8.37567L44.6377 9.63093C44.2349 8.92283 43.6662 8.3475 42.9316 7.90494C42.197 7.45433 41.4071 7.22903 40.562 7.22903C38.9585 7.22903 37.6276 7.79229 36.5691 8.91881C35.5107 10.0373 34.9815 11.4615 34.9815 13.1916C34.9815 14.9216 35.5107 16.3498 36.5691 17.4764C37.6276 18.5948 38.9585 19.1541 40.562 19.1541C41.415 19.1541 42.2049 18.9328 42.9316 18.4902C43.6662 18.0477 44.2349 17.4683 44.6377 16.7522L47.0666 18.0074C45.5263 20.4858 43.3581 21.725 40.562 21.725C39.3772 21.725 38.2634 21.5157 37.2208 21.0973C36.1781 20.6789 35.2777 20.1036 34.5194 19.3713C33.7611 18.631 33.1608 17.7258 32.7185 16.6556Z" stroke="white"/>
    <path d="M48.7374 17.766C48.7374 17.1062 48.8559 16.5228 49.0929 16.0159C49.3377 15.5009 49.6576 15.0946 50.0526 14.7968C50.4554 14.4911 50.8898 14.2617 51.3559 14.1089C51.8298 13.956 52.3156 13.8795 52.8132 13.8795C54.4719 13.8795 55.7318 14.3905 56.5928 15.4124V13.6381C56.5928 12.9542 56.34 12.4151 55.8345 12.0208C55.3368 11.6184 54.6773 11.4173 53.8558 11.4173C52.5446 11.4173 51.3875 11.9162 50.3843 12.9139L49.3417 11.1155C50.6766 9.82808 52.3195 9.18435 54.2705 9.18435C54.9498 9.18435 55.5699 9.26481 56.1307 9.42575C56.6994 9.57863 57.2128 9.82003 57.6709 10.1499C58.1291 10.4718 58.4885 10.9224 58.7491 11.5018C59.0098 12.0731 59.1401 12.745 59.1401 13.5174V21.4232H56.5928V20.1438C56.1504 20.6507 55.6015 21.041 54.9459 21.3146C54.2982 21.5882 53.5873 21.725 52.8132 21.725C52.3235 21.725 51.8416 21.6405 51.3677 21.4715C50.8938 21.3025 50.4554 21.0611 50.0526 20.7473C49.6576 20.4254 49.3377 20.007 49.0929 19.492C48.8559 18.977 48.7374 18.4017 48.7374 17.766ZM51.3085 17.8143C51.3085 18.45 51.5415 18.965 52.0075 19.3593C52.4814 19.7455 53.0817 19.9386 53.8084 19.9386C54.385 19.9386 54.9222 19.834 55.4198 19.6248C55.9174 19.4075 56.3084 19.1018 56.5928 18.7075V16.897C56.3084 16.5027 55.9174 16.201 55.4198 15.9918C54.9222 15.7745 54.385 15.6659 53.8084 15.6659C53.0817 15.6659 52.4814 15.863 52.0075 16.2573C51.5415 16.6435 51.3085 17.1625 51.3085 17.8143Z" stroke="white"/>
    <path d="M62.6237 21.4232V9.4861H65.171V11.2362C65.6371 10.6408 66.2058 10.154 66.8772 9.77577C67.5486 9.39758 68.2516 9.20849 68.9862 9.20849V11.7794C68.7729 11.7311 68.5043 11.707 68.1805 11.707C67.6434 11.707 67.0707 11.8679 66.4625 12.1898C65.8543 12.5036 65.4238 12.8697 65.171 13.2881V21.4232H62.6237Z" stroke="white"/>
    <path d="M77.695 21.4232V4.93575H84.8039C86.3915 4.93575 87.6711 5.41452 88.6427 6.37207C89.6142 7.32961 90.1 8.57281 90.1 10.1017C90.1 10.8098 89.9934 11.4575 89.7801 12.0449C89.5669 12.6323 89.2746 13.1232 88.9034 13.5174C88.54 13.9037 88.1332 14.2175 87.683 14.4589C87.2407 14.7003 86.7667 14.8612 86.2612 14.9417L90.2185 21.4232H86.9484L83.3584 15.2676H80.5386V21.4232H77.695ZM80.5386 12.7208H84.4248C85.2304 12.7208 85.89 12.4794 86.4034 11.9966C86.9247 11.5138 87.1854 10.8822 87.1854 10.1017C87.1854 9.32114 86.9247 8.68948 86.4034 8.20669C85.89 7.72389 85.2304 7.4825 84.4248 7.4825H80.5386V12.7208Z" stroke="white"/>
    <path d="M91.5813 15.4366C91.5813 14.2939 91.8301 13.2479 92.3277 12.2984C92.8332 11.3408 93.5441 10.5845 94.4604 10.0292C95.3766 9.46598 96.3995 9.18435 97.529 9.18435C99.2668 9.18435 100.661 9.79589 101.711 11.019C102.77 12.234 103.299 13.791 103.299 15.69V16.3056H94.2471C94.3498 17.247 94.7289 18.0316 95.3845 18.6592C96.048 19.2788 96.9129 19.5886 97.9793 19.5886C98.5717 19.5886 99.172 19.4759 99.7802 19.2506C100.396 19.0173 100.906 18.6954 101.309 18.285L102.47 19.9869C101.893 20.5502 101.194 20.9806 100.373 21.2784C99.5511 21.5761 98.6665 21.725 97.7186 21.725C95.9414 21.725 94.4722 21.1456 93.3111 19.9869C92.1579 18.8201 91.5813 17.3034 91.5813 15.4366ZM94.2234 14.483H100.823C100.807 14.1129 100.732 13.7508 100.598 13.3967C100.471 13.0346 100.282 12.6927 100.029 12.3708C99.7762 12.0489 99.4326 11.7914 98.9982 11.5983C98.5717 11.4052 98.082 11.3086 97.529 11.3086C97.0077 11.3086 96.5338 11.4052 96.1073 11.5983C95.6886 11.7834 95.349 12.0369 95.0883 12.3587C94.8356 12.6725 94.6341 13.0105 94.4841 13.3726C94.3419 13.7266 94.255 14.0968 94.2234 14.483Z" stroke="white"/>
    <path d="M105.989 21.4232V9.4861H108.536V11.1155C108.979 10.5845 109.563 10.1298 110.29 9.75163C111.016 9.37344 111.806 9.18435 112.659 9.18435C113.907 9.18435 114.851 9.51426 115.491 10.1741C116.131 10.8339 116.451 11.7834 116.451 13.0226V21.4232H113.903V13.964C113.903 13.0789 113.698 12.4472 113.287 12.0691C112.884 11.6828 112.304 11.4897 111.546 11.4897C110.93 11.4897 110.353 11.6466 109.816 11.9604C109.279 12.2662 108.852 12.6444 108.536 13.095V21.4232H105.989Z" stroke="white"/>
    <path d="M118.501 11.7552V9.4861H120.444V6.21516H122.991V9.4861H125.373V11.7552H122.991V18.0074C122.991 18.4259 123.09 18.7678 123.287 19.0334C123.485 19.2909 123.761 19.4196 124.117 19.4196C124.346 19.4196 124.567 19.3794 124.78 19.2989C124.994 19.2104 125.152 19.1098 125.254 18.9972L125.858 20.9525C125.329 21.4675 124.527 21.725 123.453 21.725C122.474 21.725 121.727 21.4634 121.214 20.9404C120.701 20.4093 120.444 19.6489 120.444 18.6592V11.7552H118.501Z" stroke="white"/>
    <path d="M127.162 17.766C127.162 17.1062 127.28 16.5228 127.517 16.0159C127.762 15.5009 128.082 15.0946 128.477 14.7968C128.88 14.4911 129.314 14.2617 129.78 14.1089C130.254 13.956 130.74 13.8795 131.238 13.8795C132.896 13.8795 134.156 14.3905 135.017 15.4124V13.6381C135.017 12.9542 134.765 12.4151 134.259 12.0208C133.761 11.6184 133.102 11.4173 132.28 11.4173C130.969 11.4173 129.812 11.9162 128.809 12.9139L127.766 11.1155C129.101 9.82808 130.744 9.18435 132.695 9.18435C133.374 9.18435 133.994 9.26481 134.555 9.42575C135.124 9.57863 135.637 9.82003 136.095 10.1499C136.554 10.4718 136.913 10.9224 137.174 11.5018C137.434 12.0731 137.565 12.745 137.565 13.5174V21.4232H135.017V20.1438C134.575 20.6507 134.026 21.041 133.37 21.3146C132.723 21.5882 132.012 21.725 131.238 21.725C130.748 21.725 130.266 21.6405 129.792 21.4715C129.318 21.3025 128.88 21.0611 128.477 20.7473C128.082 20.4254 127.762 20.007 127.517 19.492C127.28 18.977 127.162 18.4017 127.162 17.766ZM129.733 17.8143C129.733 18.45 129.966 18.965 130.432 19.3593C130.906 19.7455 131.506 19.9386 132.233 19.9386C132.81 19.9386 133.347 19.834 133.844 19.6248C134.342 19.4075 134.733 19.1018 135.017 18.7075V16.897C134.733 16.5027 134.342 16.201 133.844 15.9918C133.347 15.7745 132.81 15.6659 132.233 15.6659C131.506 15.6659 130.906 15.863 130.432 16.2573C129.966 16.6435 129.733 17.1625 129.733 17.8143Z" stroke="white"/>
    <path d="M141.048 21.4232V4.93575H143.596V21.4232H141.048Z" stroke="white"/>
    <path d="M12.6225 0C8.55128 0 4.92149 1.86551 2.48528 4.79704C3.61345 4.74707 5.13404 4.6971 7.16149 4.6971C11.1346 4.6971 13.1621 4.84701 14.1758 4.98026C14.7644 5.06354 15.2876 5.42998 15.582 5.96299L17.266 9.11104H17.7402C17.7566 8.82788 17.9855 8.59469 18.2634 8.59469H18.2798C18.9828 8.59469 19.6205 9.02776 19.8658 9.71067C19.9312 9.89389 19.8004 10.0771 19.6205 10.0771H18.3125C19.6859 10.9099 20.6179 12.4423 20.6179 14.1912V17.5891C20.6179 18.855 19.6042 19.8877 18.3615 19.8877H16.3504C15.7618 19.8877 15.2059 19.7045 14.7154 19.4047C14.4865 19.7878 14.0777 20.0376 13.6199 20.0376H1.03009C3.28645 24.1851 7.63565 27 12.6225 27C19.9475 27 25.8827 20.9537 25.8827 13.4917C25.8827 6.04627 19.9475 0 12.6225 0ZM20.2418 21.1536C20.2418 21.7866 19.735 22.3029 19.1136 22.3029H17.3314C16.7101 22.3029 16.2033 21.7866 16.2033 21.1536V20.4874H20.2418V21.1536Z" fill="white"/>
    <path d="M16.4976 8.99454L15.0424 6.27955C14.8462 5.91311 14.5028 5.67992 14.0941 5.6133C13.1294 5.48005 11.151 5.33014 7.16148 5.33014C4.79067 5.33014 3.12293 5.38011 1.9784 5.44673C1.12818 6.61268 0.457811 7.94519 0 9.36098H16.2687C16.4649 9.37764 16.5957 9.16111 16.4976 8.99454Z" fill="white"/>
    <path d="M15.8272 17.256C15.5492 17.256 15.353 17.5225 15.4348 17.789C15.6473 18.4386 16.2686 18.905 16.9717 18.905H18.6394C18.9664 18.905 19.2281 18.6385 19.2281 18.3054V17.839C19.2281 17.5059 18.9664 17.2394 18.6394 17.2394H15.8272V17.256Z" fill="white"/>
    <path d="M2.7142 17.0562C2.50165 17.0562 2.37084 17.2727 2.46895 17.4726L2.53435 17.6059C2.6815 17.9057 2.99216 18.0889 3.31917 18.0889H11.0039C11.3309 18.0889 11.6415 17.9057 11.7887 17.6059L11.8541 17.4726C11.9522 17.2894 11.8214 17.0562 11.6088 17.0562H2.7142Z" fill="white"/>
    <path d="M17.6585 11.7261C16.9554 11.7261 16.3995 12.309 16.3995 13.0086V14.9408C16.3995 15.1406 16.5793 15.2905 16.7755 15.2406L18.6885 14.7242C18.8357 14.6909 18.9338 14.5577 18.9338 14.4078V13.0086C18.9174 12.2924 18.3615 11.7261 17.6585 11.7261Z" fill="white"/>
</svg>
